<svg width="197" height="36" viewBox="0 0 197 36" fill="none" xmlns="http://www.w3.org/2000/svg">
<g id="Group">
<path id="Vector" fill-rule="evenodd" clip-rule="evenodd" d="M17.6982 10.3758C17.6809 9.68213 17.6583 9.09167 17.6534 8.50099C17.6433 7.30597 17.9486 6.18593 18.4312 5.09837C19.024 3.76129 19.9266 2.67351 21.065 1.78376C21.7413 1.25482 22.4982 0.85235 23.3087 0.541098C24.2488 0.180071 25.2217 0.0222018 26.2144 0.00212101C27.7438 -0.0292819 29.199 0.286884 30.5561 1.02645C31.9712 1.79721 33.0966 2.8709 33.9212 4.24429C34.2307 4.75956 34.4447 5.33506 34.6765 5.89369C35.198 7.15045 35.2238 8.47984 35.1016 9.79599C34.9814 11.0946 34.5306 12.3116 33.8184 13.4182C33.402 14.0649 32.9216 14.6581 32.3487 15.1759C32.1103 15.3919 32.1423 15.4695 32.4568 15.5904C34.2034 16.2639 35.4667 17.4414 36.2443 19.1558C36.7666 20.3085 36.8365 21.5163 36.7068 22.7312C36.5765 23.9502 36.0574 25.0307 35.2691 25.98C34.3696 27.0625 33.2326 27.767 31.8859 28.1438C31.0332 28.3827 30.152 28.438 29.2906 28.3032C28.1056 28.1174 27.0035 27.6758 26.0662 26.8911C25.9901 26.8266 25.8942 26.7871 25.782 26.7213C24.4462 30.6488 21.9065 33.4375 18.1026 35.004C15.2313 36.1866 12.2433 36.3216 9.30513 35.3793C2.65904 33.2461 -0.443007 27.2274 0.0508945 21.5744C0.227563 19.5542 0.85797 17.6585 1.92823 15.9193C3.00682 14.1676 4.40949 12.7331 6.14562 11.6362C7.86551 10.5494 9.74349 9.9137 11.7708 9.6832C13.8 9.45205 15.763 9.7475 17.6982 10.3758ZM6.56432 22.7761C6.47503 26.3737 9.46898 29.4006 13.1371 29.4412C15.0002 29.4619 16.6222 28.7621 17.9324 27.4346C19.1932 26.1571 19.8364 24.5746 19.8379 22.7925C19.8396 21.012 19.2088 19.4207 17.9471 18.1468C16.6615 16.849 15.0839 16.1505 13.2352 16.1311C9.54033 16.0928 6.46712 19.2041 6.56432 22.7761ZM26.3825 4.32953C23.9662 4.2366 21.9573 6.44912 21.9594 8.72445C21.962 11.163 24.0175 13.1928 26.377 13.1941C28.7956 13.195 30.8358 11.2027 30.8381 8.73278C30.8403 6.36858 28.8181 4.2366 26.3825 4.32953ZM33.5623 21.7665C33.5759 20.0887 32.181 18.4177 30.1921 18.4373C28.3122 18.4553 26.8521 19.9203 26.8705 21.8109C26.889 23.7436 28.4434 25.1223 30.2139 25.1275C32.0568 25.1324 33.5905 23.5462 33.5623 21.7665Z" fill="#E53E16"/>
<path id="Vector_2" fill-rule="evenodd" clip-rule="evenodd" d="M116.796 13.2156C116.851 12.2831 116.815 11.4017 116.822 10.5218C116.829 9.65017 116.823 8.77836 116.823 7.91959C117.162 7.82751 119.977 7.81235 120.454 7.89438C120.461 8.05204 120.476 8.21973 120.476 8.38743C120.477 12.1227 120.481 15.8579 120.472 19.5931C120.471 20.1864 120.423 20.7807 120.373 21.3726C120.301 22.228 119.992 23.0199 119.606 23.7704C119.049 24.8528 118.263 25.7577 117.29 26.4971C116.36 27.2042 115.317 27.6838 114.186 27.929C113.213 28.1399 112.219 28.148 111.225 28.0064C109.833 27.8073 108.591 27.2559 107.492 26.4001C106.455 25.5937 105.673 24.576 105.12 23.3764C104.813 22.7114 104.642 22.0099 104.498 21.3039C104.409 20.8676 104.413 20.4083 104.415 19.9587C104.42 19.0426 104.58 18.1448 104.897 17.2879C105.362 16.0303 106.096 14.9474 107.1 14.0476C107.981 13.2598 108.992 12.7048 110.106 12.3502C110.592 12.1957 111.112 12.1156 111.622 12.0789C112.239 12.0344 112.865 12.0376 113.482 12.0823C114.195 12.1338 114.88 12.3448 115.536 12.6275C115.851 12.7627 116.151 12.9285 116.46 13.0771C116.55 13.1214 116.646 13.154 116.796 13.2156ZM116.832 19.9055C116.814 19.6803 116.831 19.3129 116.744 18.9715C116.5 18.0125 116.073 17.1546 115.339 16.4507C114.053 15.2172 112.175 14.8782 110.582 15.7287C108.947 16.6026 108.205 18.0597 108.054 19.8568C108.021 20.2524 108.084 20.6414 108.174 21.034C108.292 21.5406 108.445 22.0248 108.693 22.4835C109.126 23.2854 109.745 23.9186 110.543 24.3363C111.289 24.727 112.096 24.8688 112.96 24.7575C113.777 24.6522 114.489 24.3544 115.103 23.8328C116.27 22.8422 116.829 21.5655 116.832 19.9055Z" fill="#2A2A2A"/>
<path id="Vector_3" fill-rule="evenodd" clip-rule="evenodd" d="M196.077 21.5352C192.118 21.5352 188.177 21.5352 184.222 21.5352C184.217 21.6407 184.193 21.7127 184.215 21.7676C184.626 22.8212 185.27 23.677 186.293 24.2117C187.16 24.665 188.088 24.7517 189.029 24.5996C189.781 24.4779 190.463 24.1495 191.023 23.6168C191.219 23.4305 191.419 23.3478 191.691 23.3516C192.817 23.3642 193.943 23.3566 195.068 23.3566C195.198 23.3566 195.327 23.3566 195.472 23.3566C194.416 26.1456 190.963 28.6955 186.809 27.9217C182.07 27.0399 179.676 22.8451 180.274 18.8076C180.624 16.4421 181.863 14.5531 183.89 13.2405C185.704 12.0665 187.706 11.6877 189.812 12.116C194.531 13.0771 196.969 17.5532 196.077 21.5352ZM192.245 18.255C191.729 16.3193 189.851 15.0177 187.64 15.3025C186.621 15.4338 185.723 15.8645 185.049 16.681C184.667 17.1445 184.349 17.6402 184.205 18.2552C186.907 18.255 189.56 18.255 192.245 18.255Z" fill="#2A2A2A"/>
<path id="Vector_4" fill-rule="evenodd" clip-rule="evenodd" d="M151.166 28.0781C149.932 28.0781 148.773 28.0781 147.576 28.0781C147.568 27.8978 147.555 27.7438 147.555 27.5895C147.554 25.139 147.567 22.6883 147.549 20.2368C147.54 18.9565 147.167 17.785 146.292 16.8188C145.339 15.7671 144.162 15.2461 142.724 15.3952C141.323 15.5398 140.293 16.2655 139.542 17.4278C138.981 18.2966 138.737 19.2532 138.738 20.2821C138.741 22.7061 138.739 25.1299 138.739 27.5551C138.739 27.7126 138.739 27.87 138.739 28.017C138.43 28.1251 135.6 28.146 135.168 28.054C135.078 27.7564 135.064 8.29426 135.158 7.86914C136.325 7.86914 137.499 7.86914 138.729 7.86914C138.733 8.31348 138.736 8.75782 138.739 9.20216C138.74 9.65248 138.739 10.1028 138.739 10.5536C138.739 10.9902 138.739 11.4277 138.739 11.865C138.739 12.3134 138.739 12.7618 138.739 13.2243C139.091 13.2523 139.317 13.0348 139.561 12.9075C140.224 12.561 140.925 12.3501 141.648 12.1972C142.22 12.0759 142.802 12.0547 143.386 12.069C144.902 12.1064 146.289 12.5518 147.556 13.3777C148.897 14.2527 149.891 15.4358 150.526 16.8969C150.916 17.7944 151.166 18.7425 151.166 19.7365C151.167 22.36 151.166 24.9827 151.166 27.6058C151.166 27.7493 151.166 27.8925 151.166 28.0781Z" fill="#2A2A2A"/>
<path id="Vector_5" fill-rule="evenodd" clip-rule="evenodd" d="M169.116 28.08C167.861 28.08 166.69 28.08 165.462 28.08C165.462 27.6812 165.462 27.3061 165.462 26.8568C165.155 27.0068 164.92 27.1155 164.691 27.2353C163.985 27.6077 163.237 27.8465 162.45 27.9826C161.447 28.1561 160.443 28.1396 159.451 27.9484C158.445 27.7553 157.504 27.3625 156.65 26.7908C155.43 25.9739 154.483 24.9092 153.84 23.5851C153.521 22.9299 153.3 22.2444 153.165 21.5254C153.045 20.8806 153.022 20.2355 153.049 19.5873C153.084 18.736 153.268 17.9121 153.582 17.1191C154.221 15.4983 155.279 14.2153 156.742 13.2754C157.285 12.9269 157.87 12.662 158.484 12.4437C159.308 12.1515 160.152 12.0372 161.01 12.0235C162.088 12.0066 163.137 12.1933 164.139 12.6123C165.471 13.169 166.582 14.0136 167.458 15.1591C168.08 15.9726 168.529 16.8692 168.812 17.863C169.054 18.7155 169.117 19.5745 169.117 20.4483C169.116 22.8062 169.117 25.1634 169.117 27.5218C169.116 27.691 169.116 27.8611 169.116 28.08ZM165.469 20.1383C165.454 19.1351 165.22 18.3139 164.797 17.5269C163.957 15.9662 161.974 14.8699 160.072 15.3971C159.116 15.6622 158.344 16.1713 157.744 16.9427C157.173 17.6748 156.835 18.4981 156.731 19.4352C156.609 20.539 156.78 21.5807 157.336 22.5255C158.057 23.7533 159.085 24.5693 160.561 24.7539C161.734 24.9004 162.772 24.6071 163.669 23.8789C164.88 22.8936 165.429 21.573 165.469 20.1383Z" fill="#2A2A2A"/>
<path id="Vector_6" fill-rule="evenodd" clip-rule="evenodd" d="M84.5978 20.0297C84.7362 24.38 81.0337 28.1111 76.5875 28.1086C72.1791 28.1058 68.5293 24.4881 68.5381 20.0511C68.5466 15.7083 72.0499 12.0271 76.5698 12.0147C81.0362 12.0027 84.6907 15.6796 84.5978 20.0297ZM81.0006 19.9598C80.9715 19.7733 80.9115 19.4758 80.8805 19.1756C80.807 18.4595 80.5141 17.8304 80.1277 17.2395C79.4415 16.1915 78.4689 15.5453 77.2493 15.3109C76.3811 15.1441 75.5174 15.2868 74.7437 15.7023C73.1167 16.5756 72.3165 18.0073 72.1913 19.8148C72.1234 20.7966 72.3716 21.731 72.8828 22.5797C73.6002 23.7718 74.5984 24.5506 76.0182 24.7461C77.1549 24.9029 78.1743 24.6395 79.0741 23.9563C80.3501 22.9875 80.9012 21.6443 81.0006 19.9598Z" fill="#2A2A2A"/>
<path id="Vector_7" fill-rule="evenodd" clip-rule="evenodd" d="M86.4714 11.9899C87.7017 11.9899 88.8745 11.9899 90.0881 11.9899C90.0981 12.1766 90.1141 12.3441 90.1141 12.5116C90.1156 14.9097 90.1045 17.3075 90.1214 19.7058C90.1267 20.4853 90.2 21.2636 90.5251 21.9931C91.0331 23.1337 91.8018 24.0275 92.9823 24.4927C94.3264 25.0232 95.6216 24.8901 96.8322 24.0877C97.4724 23.6639 97.9597 23.0997 98.3173 22.4182C98.7119 21.6673 98.9061 20.8793 98.9005 20.0243C98.8839 17.5202 98.8945 15.0161 98.8945 12.512C98.8945 12.3546 98.8945 12.1971 98.8945 12.0482C99.193 11.9504 102.028 11.9237 102.584 12.0104C102.592 12.1161 102.607 12.2309 102.607 12.3452C102.609 14.942 102.652 17.5397 102.591 20.1354C102.558 21.5404 102.213 22.8955 101.466 24.1317C100.776 25.2746 99.8875 26.2086 98.7583 26.9086C97.876 27.4553 96.9234 27.8165 95.8899 27.9874C94.8688 28.156 93.8517 28.144 92.8505 27.9419C91.8509 27.7396 90.9184 27.3372 90.0626 26.7634C88.7078 25.854 87.7294 24.6387 87.0813 23.154C86.9294 22.8055 86.8395 22.4291 86.7342 22.0619C86.4842 21.1882 86.4641 20.2922 86.4678 19.3912C86.4778 17.0987 86.471 14.807 86.471 12.5146C86.4714 12.3567 86.4714 12.1988 86.4714 11.9899Z" fill="#2A2A2A"/>
<path id="Vector_8" fill-rule="evenodd" clip-rule="evenodd" d="M57.2003 22.6557C58.5088 22.6557 59.7918 22.6557 61.1323 22.6557C60.7435 23.9248 60.052 24.9673 59.1292 25.8472C57.5609 27.343 55.6834 28.1012 53.504 28.1007C49.0379 28.0997 45.3724 24.442 45.4901 19.8388C45.5997 15.5612 49.0367 12.0383 53.5358 12.0148C57.6349 11.9932 60.5387 15.0747 61.0939 17.5064C60.974 17.5141 60.8589 17.5274 60.7437 17.5278C59.7104 17.5291 58.6769 17.5235 57.6434 17.5325C57.3988 17.5346 57.2409 17.4789 57.0929 17.2505C56.5373 16.3943 55.7682 15.7889 54.793 15.4652C53.9364 15.1811 53.071 15.1762 52.2244 15.4847C50.6933 16.0429 49.7241 17.1544 49.3407 18.7104C48.8371 20.7552 49.349 22.5373 50.9911 23.9167C51.5307 24.3698 52.1746 24.6328 52.8892 24.7417C53.6161 24.8521 54.3098 24.7819 54.9906 24.5311C55.8767 24.2036 56.5552 23.6155 57.0784 22.8379C57.1153 22.7828 57.1519 22.7281 57.2003 22.6557Z" fill="#2A2A2A"/>
<path id="Vector_9" fill-rule="evenodd" clip-rule="evenodd" d="M122.354 22.9203C122.457 22.9028 122.507 22.8874 122.558 22.8874C123.605 22.8853 124.651 22.8827 125.698 22.8862C125.989 22.887 125.993 22.9082 126.1 23.2115C126.237 23.5986 126.404 23.965 126.692 24.2745C127.536 25.186 128.987 24.9981 129.538 23.8639C129.81 23.3023 129.576 22.5157 129.033 22.1818C128.664 21.9554 128.264 21.7715 127.862 21.608C126.947 21.237 125.993 20.9633 125.118 20.4918C124.025 19.9022 123.253 19.0274 123.015 17.8087C122.555 15.4541 123.504 13.5148 125.71 12.4679C126.531 12.078 127.4 12.0143 128.295 12.0447C129.112 12.072 129.862 12.2912 130.545 12.7161C131.666 13.414 132.427 14.395 132.741 15.6932C132.79 15.8974 132.794 16.1129 132.819 16.3229C132.839 16.4834 132.778 16.5791 132.608 16.588C132.568 16.5906 132.529 16.5932 132.489 16.5932C131.522 16.5932 130.555 16.5932 129.588 16.591C129.523 16.591 129.458 16.5748 129.382 16.5648C129.33 16.4434 129.264 16.3266 129.229 16.2025C128.975 15.299 127.756 14.8921 126.897 15.6688C126.406 16.1129 126.379 16.9536 126.965 17.4105C127.347 17.7092 127.785 17.8867 128.241 18.027C129.16 18.3092 130.069 18.6171 130.942 19.0268C132.082 19.5619 132.81 20.4453 133.119 21.6424C133.258 22.1842 133.317 22.7569 133.228 23.3358C133.14 23.9 133.036 24.448 132.79 24.9711C132.383 25.841 131.765 26.5221 131.003 27.0899C129.836 27.9583 128.501 28.2223 127.099 28.0599C125.225 27.8425 123.765 26.9331 122.909 25.2072C122.563 24.5074 122.429 23.7347 122.354 22.9203Z" fill="#2A2A2A"/>
<path id="Vector_10" fill-rule="evenodd" clip-rule="evenodd" d="M63.006 28.1669C63.006 21.3967 63.006 14.6499 63.006 7.87695C64.2756 7.87695 65.5263 7.87695 66.804 7.87695C66.804 14.6324 66.804 21.3789 66.804 28.1261C66.5255 28.2124 63.8269 28.2453 63.006 28.1669Z" fill="#2A2A2A"/>
<path id="Vector_11" fill-rule="evenodd" clip-rule="evenodd" d="M178.956 15.1805C178.448 15.3131 177.968 15.4037 177.513 15.565C176.721 15.8459 176.096 16.3736 175.604 17.0461C174.954 17.9347 174.629 18.929 174.636 20.0415C174.65 22.545 174.64 25.0485 174.64 27.5526C174.64 27.7081 174.64 27.8634 174.64 28.0527C174.471 28.0642 174.343 28.0805 174.215 28.0805C173.288 28.0828 172.36 28.0839 171.433 28.0811C171.003 28.08 170.992 28.0706 170.992 27.6301C170.991 24.9677 170.956 22.3044 171.003 19.6425C171.041 17.4154 171.974 15.5579 173.604 14.0564C174.398 13.3251 175.315 12.7979 176.339 12.4292C177.11 12.1521 177.901 12.0645 178.698 11.9688C178.773 11.9601 178.851 11.9821 178.922 11.9889C179.008 12.2991 179.028 14.7197 178.956 15.1805Z" fill="#2A2A2A"/>
</g>
</svg>
